<svg width="24" height="24" viewBox="0 0 24 24" fill="none" xmlns="http://www.w3.org/2000/svg">
<path d="M14.5453 4.55859C14.1703 4.39453 13.725 4.57031 13.5609 4.95703L11.9906 8.625C10.9594 8.63906 10.125 9.46875 10.125 10.5C10.125 11.5369 10.9631 12.375 12 12.375C13.0369 12.375 13.875 11.5359 13.875 10.5C13.875 10.0078 13.6758 9.5625 13.3594 9.22875L14.9414 5.54297C15.1078 5.16094 14.925 4.725 14.5453 4.55859ZM21 3H18.3642C16.8516 1.16766 14.5641 0 12 0C9.43594 0 7.14844 1.16766 5.63437 3H3C1.34766 3 0 4.34766 0 6V21C0 22.6523 1.34766 24 3 24H21C22.6523 24 24 22.6523 24 21V6C24 4.34766 22.6547 3 21 3ZM12 14.25C8.69156 14.25 6 11.5584 6 8.25C6 4.94156 8.69156 2.25 12 2.25C15.3084 2.25 18 4.94156 18 8.25C18 11.5584 15.3094 14.25 12 14.25Z" fill="#1D1815"/>
</svg>
