<svg width="24" height="24" viewBox="0 0 24 24" fill="none" xmlns="http://www.w3.org/2000/svg">
<mask id="mask0_25_20" style="mask-type:alpha" maskUnits="userSpaceOnUse" x="-1" y="0" width="25" height="24">
<path fill-rule="evenodd" clip-rule="evenodd" d="M6.55851 2.5H7.00151C9.33451 2.845 9.96701 4.169 12 4.169C14.033 4.169 14.6655 2.845 16.999 2.5H17.25C17.8738 2.5 18.4915 2.62286 19.0678 2.86157C19.6441 3.10028 20.1677 3.45016 20.6088 3.89124C21.0498 4.33232 21.3997 4.85596 21.6384 5.43225C21.8772 6.00855 22 6.62622 22 7.25V7.563C22 9.0145 20.455 10.6715 20 12.2415C19.5175 13.9085 19.187 15.2715 19.09 16.697C18.8625 20.0375 17.7235 21.5 16.5 21.5C14.673 21.5 13.051 14.0125 12.0315 14.0125C11.0115 14.0125 8.98901 21.5 7.50001 21.5C6.59151 21.5 5.41501 20.9625 4.97301 16.697C4.79701 15 4.50001 13.9705 4.00001 12.2415C3.56001 10.7215 2.07601 8.9055 2.00001 7.2755C1.97134 6.65904 2.06801 6.04316 2.28416 5.46512C2.50031 4.88708 2.83146 4.35889 3.25758 3.91249C3.68369 3.46609 4.19593 3.11075 4.7633 2.86797C5.33067 2.62519 5.94138 2.50001 6.55851 2.5Z" fill="white" stroke="white" stroke-width="4"/>
<path d="M7.74103 8.89451L16.0005 6.23151M7.74103 6.23151L16.0005 8.89451L7.74103 6.23151Z" stroke="black" stroke-width="4" stroke-linecap="round"/>
</mask>
<g mask="url(#mask0_25_20)">
<path d="M0 0H24V24H0V0Z" fill="#1D1815"/>
</g>
</svg>
