<svg width="24" height="24" viewBox="0 0 24 24" fill="none" xmlns="http://www.w3.org/2000/svg">
<path fill-rule="evenodd" clip-rule="evenodd" d="M8.35751 7.537C8.94751 8.18 9.94451 8.456 11.771 8.495C11.875 7.1155 12.4065 6.029 13.193 5.266C14.067 4.418 15.226 4 16.376 4C17.526 4 18.6855 4.418 19.5595 5.266C20.4395 6.12 21 7.379 21 9V14.5C21 16.041 20.7435 17.6505 19.967 18.89C19.1675 20.1665 17.8475 21 15.872 21C13.851 21 12.4445 19.801 11.158 18.691L11.102 18.643C9.80701 17.525 8.59951 16.483 6.88351 16.25C6.04201 16.2565 5.47551 16.5135 5.08001 16.8655C4.67001 17.2305 4.40501 17.7325 4.24001 18.2715C4.07501 18.8095 4.01801 19.3565 4.00401 19.775C3.99682 19.9865 3.99999 20.1983 4.01351 20.4095C4.01427 20.4203 4.0151 20.4312 4.01601 20.442L4.01701 20.449V20.4495L3.51951 20.5C3.02201 20.551 3.02201 20.55 3.02201 20.55V20.5485L3.02151 20.544L3.02001 20.5305C3.01411 20.4596 3.00961 20.3886 3.00651 20.3175C3.00051 20.177 2.99651 19.9785 3.00451 19.741C3.02051 19.269 3.08451 18.628 3.28401 17.9785C3.48251 17.33 3.82451 16.644 4.41501 16.1185C5.01501 15.5845 5.83401 15.25 6.91551 15.25C7.16701 15.25 7.40401 15.2555 7.63151 15.261C8.05451 15.271 8.44551 15.281 8.83751 15.251C9.41501 15.208 9.89101 15.0825 10.2845 14.7875C11.038 14.2225 11.6905 12.8755 11.748 9.495C9.88851 9.4565 8.50801 9.18 7.62101 8.213C7.13901 7.688 6.84151 7.0005 6.66201 6.15C6.48351 5.303 6.41551 4.2625 6.41551 3H7.41551C7.41551 4.2375 7.48301 5.197 7.64051 5.9435C7.79751 6.687 8.03701 7.187 8.35751 7.537V7.537ZM20 13.1205V9C20 7.621 19.53 6.63 18.863 5.984C18.191 5.332 17.288 5 16.376 5C15.464 5 14.561 5.332 13.889 5.984C13.2225 6.6305 12.7525 7.621 12.7525 9C12.7525 10.3845 12.663 11.52 12.49 12.4475C14.159 11.5455 15.4245 12.1875 16.616 12.793C17.72 13.3535 18.7605 13.882 20 13.1205V13.1205Z" fill="#1D1815"/>
</svg>
